<svg width="24" height="29" viewBox="0 0 24 29" fill="none" xmlns="http://www.w3.org/2000/svg">
<path id="Vector" d="M11.7327 0.0210909L12.0003 7.33176e-08C12.3482 -0.000102781 12.6851 0.108015 12.9524 0.305525C13.2197 0.503035 13.4004 0.777422 13.463 1.0809L13.4868 1.31817V24.497L21.4608 17.4289C21.7067 17.2105 22.0313 17.0756 22.3779 17.0477C22.7246 17.0197 23.0713 17.1005 23.3576 17.276L23.5657 17.4289C23.8115 17.6473 23.9631 17.9353 23.9941 18.2427C24.0251 18.55 23.9334 18.8573 23.7352 19.1109L23.5628 19.2928L13.0528 28.6149C12.8064 28.8329 12.4816 28.9673 12.135 28.9948C11.7884 29.0222 11.4419 28.941 11.1559 28.7652L10.9478 28.6149L0.437758 19.2928C0.174386 19.0603 0.0187748 18.7488 0.00159119 18.4196C-0.0155924 18.0904 0.106898 17.7674 0.344923 17.5144C0.582947 17.2613 0.919241 17.0964 1.28753 17.0523C1.65582 17.0082 2.02939 17.088 2.33462 17.276L2.53976 17.4289L10.5137 24.497V1.31817C10.5136 1.00965 10.6355 0.710872 10.8583 0.47386C11.081 0.236849 11.3904 0.0766245 11.7327 0.0210909Z" fill="white"/>
</svg>
